<svg xmlns="http://www.w3.org/2000/svg" xmlns:xlink="http://www.w3.org/1999/xlink"><defs><clipPath id="clip0"><path transform="translate(52 8)" d="M0 0h91v39H0z"/></clipPath><clipPath id="clip0"><path transform="translate(52 8)" d="M0 0h114v39H0z"/></clipPath></defs><symbol id="icon-app-store"><rect width="159" height="56" rx="4" fill="#E5ECF4"/><g clip-path="url(#clip0)"><path d="M60.5 40h-4.76l-.68 3H52.3l3.34-14h4.96l3.34 14h-2.76l-.68-3zm-4.2-2.52h3.62l-1.62-7.16h-.36l-1.64 7.16zM66.913 47h-2.52V33.08h2.52v1.44h.36a2.874 2.874 0 011.16-1.26c.507-.307 1.154-.46 1.94-.46.587 0 1.14.113 1.66.34.534.227.994.56 1.38 1 .4.427.714.953.94 1.58.24.627.36 1.34.36 2.14v.36c0 .813-.113 1.533-.34 2.16a4.935 4.935 0 01-.92 1.6 3.896 3.896 0 01-1.38.98 4.44 4.44 0 01-1.7.32c-.453 0-.846-.047-1.18-.14a3.31 3.31 0 01-.88-.38c-.24-.16-.446-.34-.62-.54a4.99 4.99 0 01-.42-.66h-.36V47zm2.64-6.12c.787 0 1.42-.24 1.9-.72.494-.493.74-1.16.74-2v-.24c0-.84-.246-1.5-.74-1.98-.48-.493-1.113-.74-1.9-.74-.786 0-1.426.253-1.92.76-.48.493-.72 1.147-.72 1.96v.24c0 .813.24 1.473.72 1.98.494.493 1.134.74 1.92.74zM78.266 47h-2.52V33.08h2.52v1.44h.36a2.872 2.872 0 011.16-1.26c.507-.307 1.154-.46 1.94-.46.587 0 1.14.113 1.66.34.534.227.994.56 1.38 1 .4.427.714.953.94 1.58.24.627.36 1.34.36 2.14v.36c0 .813-.113 1.533-.34 2.16a4.939 4.939 0 01-.92 1.6 3.898 3.898 0 01-1.38.98 4.44 4.44 0 01-1.7.32c-.453 0-.846-.047-1.18-.14a3.307 3.307 0 01-.88-.38c-.24-.16-.446-.34-.62-.54a4.99 4.99 0 01-.42-.66h-.36V47zm2.64-6.12c.787 0 1.42-.24 1.9-.72.494-.493.74-1.16.74-2v-.24c0-.84-.246-1.5-.74-1.98-.48-.493-1.113-.74-1.9-.74-.786 0-1.426.253-1.92.76-.48.493-.72 1.147-.72 1.96v.24c0 .813.24 1.473.72 1.98.494.493 1.134.74 1.92.74zm13.674-7.6c0-.56-.22-1.047-.66-1.46-.427-.413-1.034-.62-1.82-.62-.667 0-1.194.14-1.58.42-.387.267-.58.633-.58 1.1 0 .24.046.46.14.66.093.187.253.36.48.52.24.147.546.28.92.4.386.12.873.233 1.46.34 1.466.267 2.586.713 3.36 1.34.773.627 1.16 1.553 1.16 2.78V39a4.29 4.29 0 01-.36 1.78 3.65 3.65 0 01-1 1.34c-.44.373-.974.66-1.6.86-.627.2-1.334.3-2.12.3-.92 0-1.734-.127-2.44-.38-.694-.267-1.274-.627-1.74-1.08a4.678 4.678 0 01-1.06-1.62 5.657 5.657 0 01-.36-2.04v-.6h2.64v.48c0 .84.24 1.513.72 2.02.493.493 1.253.74 2.28.74.8 0 1.393-.173 1.78-.52.386-.347.58-.76.58-1.24 0-.227-.04-.44-.12-.64a1.3 1.3 0 00-.42-.56c-.2-.173-.474-.327-.82-.46a7.215 7.215 0 00-1.32-.34 14.308 14.308 0 01-1.94-.46c-.587-.2-1.1-.46-1.54-.78-.427-.32-.76-.72-1-1.2s-.36-1.067-.36-1.76v-.12c0-.573.113-1.1.34-1.58.24-.493.566-.92.98-1.28a4.65 4.65 0 011.52-.84c.6-.2 1.266-.3 2-.3.826 0 1.56.12 2.2.36.64.227 1.173.54 1.6.94.44.4.766.86.98 1.38.226.52.34 1.067.34 1.64v.72h-2.64v-.48zm4.113-.2h2.94V29h2.52v4.08h3.58v2.4h-3.58V40c0 .4.18.6.54.6h2.68V43h-4.2c-.453 0-.827-.147-1.12-.44-.28-.293-.42-.667-.42-1.12v-5.96h-2.94v-2.4zm21.353 5.08c0 .827-.14 1.56-.42 2.2a4.79 4.79 0 01-1.14 1.6 5.062 5.062 0 01-1.66.98 5.55 5.55 0 01-1.94.34c-.68 0-1.333-.113-1.96-.34a5.116 5.116 0 01-1.64-.98 4.79 4.79 0 01-1.14-1.6c-.28-.64-.42-1.373-.42-2.2v-.24c0-.813.14-1.533.42-2.16.28-.64.66-1.18 1.14-1.62a4.94 4.94 0 011.64-1 5.719 5.719 0 011.96-.34c.68 0 1.327.113 1.94.34a4.745 4.745 0 012.8 2.62c.28.627.42 1.347.42 2.16v.24zm-5.16 2.72c.36 0 .7-.06 1.02-.18.32-.12.6-.293.84-.52.24-.227.427-.5.56-.82.147-.333.22-.707.22-1.12v-.4c0-.413-.073-.78-.22-1.1a2.32 2.32 0 00-.56-.84 2.47 2.47 0 00-.84-.52 2.88 2.88 0 00-1.02-.18c-.36 0-.7.06-1.02.18-.32.12-.6.293-.84.52-.24.227-.433.507-.58.84-.133.32-.2.687-.2 1.1v.4a3 3 0 00.2 1.12c.147.32.34.593.58.82.24.227.52.4.84.52.32.12.66.18 1.02.18zm6.313-7.8h4.2v1.44h.36c.187-.547.5-.967.94-1.26.454-.307.994-.46 1.62-.46.987 0 1.78.313 2.38.94.6.613.9 1.553.9 2.82V37l-2.6.24v-.28c0-.547-.14-.98-.42-1.3-.28-.333-.7-.5-1.26-.5s-1 .193-1.32.58c-.32.387-.48.94-.48 1.66v3.2h2.28V43h-6.84v-2.4h2.04v-5.12h-1.8v-2.4zm14.054 5.78c.013.293.08.567.2.82.133.24.306.453.52.64.226.173.48.313.76.42.293.093.6.14.92.14.626 0 1.106-.107 1.44-.32.333-.227.573-.493.72-.8l2.16 1.2c-.12.253-.287.52-.5.8a3.576 3.576 0 01-.84.74 4.47 4.47 0 01-1.24.56c-.48.147-1.047.22-1.7.22-.747 0-1.427-.12-2.04-.36a4.603 4.603 0 01-1.6-1.04 4.88 4.88 0 01-1.04-1.66c-.24-.653-.36-1.393-.36-2.22v-.12c0-.76.126-1.453.38-2.08a4.82 4.82 0 011.08-1.6c.453-.44.98-.78 1.58-1.02a5.08 5.08 0 011.96-.38c.853 0 1.586.153 2.2.46.613.293 1.12.673 1.52 1.14.4.453.693.96.88 1.52.186.547.28 1.08.28 1.6v1.34h-7.28zm2.38-3.78c-.64 0-1.16.167-1.56.5-.4.32-.66.693-.78 1.12h4.68c-.08-.467-.334-.853-.76-1.16-.414-.307-.94-.46-1.58-.46zM56.25 17.5h-2.38l-.34 1.5h-1.38l1.67-7h2.48l1.67 7h-1.38l-.34-1.5zm-2.1-1.26h1.81l-.81-3.58h-.18l-.82 3.58zm3.957-2.2h1.36l1.17 4.36h.18l1.17-4.36h1.36L61.927 19h-2.4l-1.42-4.96zm9.236 4.24c-.133.313-.32.537-.56.67-.24.127-.52.19-.84.19-.3 0-.583-.057-.85-.17-.26-.113-.49-.28-.69-.5-.2-.22-.36-.487-.48-.8a3.134 3.134 0 01-.17-1.07v-.16c0-.393.057-.747.17-1.06a2.47 2.47 0 01.46-.8c.194-.22.417-.387.67-.5.26-.12.537-.18.83-.18.354 0 .637.06.85.18.22.12.394.307.52.56h.18v-.6h1.26v3.46c0 .2.09.3.27.3h.19V19h-.86a.8.8 0 01-.56-.2.686.686 0 01-.21-.52h-.18zm-1.12-.34c.367 0 .66-.12.88-.36.22-.247.33-.58.33-1v-.12c0-.42-.11-.75-.33-.99-.22-.247-.513-.37-.88-.37-.366 0-.66.123-.88.37-.22.24-.33.57-.33.99v.12c0 .42.11.753.33 1 .22.24.514.36.88.36zm3.677-.14h1.68v-2.56h-1.56v-1.2h2.82v3.76h1.44V19H69.9v-1.2zm3.25-5.23c0 .133-.027.26-.08.38a.913.913 0 01-.2.3c-.087.08-.19.147-.31.2a.936.936 0 01-.36.07.961.961 0 01-.37-.07 1.175 1.175 0 01-.3-.2 1.057 1.057 0 01-.21-.3 1.039 1.039 0 010-.75.897.897 0 01.21-.3.909.909 0 01.3-.2.858.858 0 01.37-.08c.126 0 .246.027.36.08a.89.89 0 01.31.2c.087.08.153.18.2.3.053.113.08.237.08.37zm2.306 5.23h1.74v-4.6h-1.68V12h2.94v5.8h1.62V19h-4.62v-1.2zm8.917.48c-.133.313-.32.537-.56.67-.24.127-.52.19-.84.19-.3 0-.583-.057-.85-.17-.26-.113-.49-.28-.69-.5-.2-.22-.36-.487-.48-.8a3.134 3.134 0 01-.17-1.07v-.16c0-.393.057-.747.17-1.06a2.47 2.47 0 01.46-.8c.193-.22.417-.387.67-.5.26-.12.537-.18.83-.18.353 0 .637.06.85.18.22.12.393.307.52.56h.18v-.6h1.26v3.46c0 .2.09.3.27.3h.19V19h-.86a.8.8 0 01-.56-.2.686.686 0 01-.21-.52h-.18zm-1.12-.34c.367 0 .66-.12.88-.36.22-.247.33-.58.33-1v-.12c0-.42-.11-.75-.33-.99-.22-.247-.513-.37-.88-.37s-.66.123-.88.37c-.22.24-.33.57-.33.99v.12c0 .42.11.753.33 1 .22.24.513.36.88.36zM87.89 19h-1.26v-7h1.26v2.76h.18c.133-.273.326-.483.58-.63.253-.153.576-.23.97-.23.293 0 .57.057.83.17.266.113.496.28.69.5.2.213.356.477.47.79.12.313.18.67.18 1.07v.18c0 .407-.057.767-.17 1.08a2.47 2.47 0 01-.46.8 1.948 1.948 0 01-.69.49c-.26.107-.544.16-.85.16-.227 0-.424-.023-.59-.07a1.656 1.656 0 01-.44-.19 1.53 1.53 0 01-.31-.27 2.502 2.502 0 01-.21-.33h-.18V19zm1.32-1.06c.393 0 .71-.12.95-.36.246-.247.37-.58.37-1v-.12c0-.42-.124-.75-.37-.99-.24-.247-.557-.37-.95-.37-.394 0-.714.127-.96.38-.24.247-.36.573-.36.98v.12c0 .407.12.737.36.99.246.247.566.37.96.37zm3.276-.14h1.74v-4.6h-1.68V12h2.94v5.8h1.62V19h-4.62v-1.2zm6.817-.87c.007.147.04.283.1.41.067.12.153.227.26.32a1.5 1.5 0 00.38.21c.147.047.3.07.46.07.313 0 .553-.053.72-.16.167-.113.287-.247.36-.4l1.08.6a2.26 2.26 0 01-.25.4 1.788 1.788 0 01-.42.37 2.228 2.228 0 01-.62.28c-.24.073-.523.11-.85.11a2.78 2.78 0 01-1.02-.18 2.306 2.306 0 01-.8-.52 2.443 2.443 0 01-.52-.83 3.204 3.204 0 01-.18-1.11v-.06c0-.38.063-.727.19-1.04.133-.313.313-.58.54-.8.227-.22.49-.39.79-.51a2.54 2.54 0 01.98-.19c.427 0 .793.077 1.1.23a2.285 2.285 0 011.2 1.33c.093.273.14.54.14.8v.67h-3.64zm1.19-1.89c-.32 0-.58.083-.78.25-.2.16-.33.347-.39.56h2.34a.885.885 0 00-.38-.58c-.207-.153-.47-.23-.79-.23zm13.913 1.54c0 .413-.07.78-.21 1.1a2.4 2.4 0 01-.57.8c-.24.213-.516.377-.83.49a2.87 2.87 0 01-1.95 0 2.564 2.564 0 01-.82-.49 2.4 2.4 0 01-.57-.8 2.72 2.72 0 01-.21-1.1v-.12c0-.407.07-.767.21-1.08.14-.32.33-.59.57-.81.24-.22.514-.387.82-.5a2.87 2.87 0 011.95 0 2.372 2.372 0 011.4 1.31c.14.313.21.673.21 1.08v.12zm-2.58 1.36c.18 0 .35-.03.51-.09.16-.06.3-.147.42-.26.12-.113.214-.25.28-.41.074-.167.11-.353.11-.56v-.2c0-.207-.036-.39-.11-.55a1.153 1.153 0 00-.28-.42c-.12-.113-.26-.2-.42-.26a1.44 1.44 0 00-.51-.09c-.18 0-.35.03-.51.09-.16.06-.3.147-.42.26-.12.113-.216.253-.29.42-.066.16-.1.343-.1.55v.2c0 .207.034.393.1.56a1.238 1.238 0 00.71.67c.16.06.33.09.51.09zm4.657 1.06h-1.26v-4.96h1.26v.74h.18a1.31 1.31 0 01.55-.65c.253-.153.55-.23.89-.23.24 0 .463.04.67.12.213.073.4.19.56.35.16.16.283.363.37.61.093.247.14.54.14.88V19h-1.26v-2.82c0-.353-.087-.63-.26-.83-.167-.207-.41-.31-.73-.31-.374 0-.654.127-.84.38-.18.247-.27.58-.27 1V19zm9.953-4.96h1.47V12h1.26v2.04h1.79v1.2h-1.79v2.26c0 .2.09.3.27.3h1.34V19h-2.1a.758.758 0 01-.56-.22.778.778 0 01-.21-.56v-2.98h-1.47v-1.2zm7.097 4.96h-1.26v-7h1.26v2.84h.18c.126-.3.313-.53.56-.69.246-.167.55-.25.91-.25.246 0 .473.04.68.12.206.08.386.2.54.36.153.16.273.367.36.62.086.247.13.54.13.88V19h-1.26v-2.82c0-.353-.087-.63-.26-.83-.167-.207-.41-.31-.73-.31-.374 0-.654.127-.84.38-.18.247-.27.58-.27 1V19zm5.506-2.07c.007.147.04.283.1.41.067.12.154.227.26.32.114.087.24.157.38.21.147.047.3.07.46.07.314 0 .554-.053.72-.16.167-.113.287-.247.36-.4l1.08.6a2.26 2.26 0 01-.25.4 1.749 1.749 0 01-.42.37 2.215 2.215 0 01-.62.28c-.24.073-.523.11-.85.11a2.78 2.78 0 01-1.02-.18 2.315 2.315 0 01-.8-.52 2.447 2.447 0 01-.52-.83 3.204 3.204 0 01-.18-1.11v-.06c0-.38.064-.727.19-1.04a2.44 2.44 0 01.54-.8c.227-.22.49-.39.79-.51.307-.127.634-.19.98-.19.427 0 .794.077 1.1.23a2.285 2.285 0 011.2 1.33c.094.273.14.54.14.8v.67h-3.64zm1.19-1.89c-.32 0-.58.083-.78.25-.2.16-.33.347-.39.56h2.34a.881.881 0 00-.38-.58c-.206-.153-.47-.23-.79-.23z"/></g><path fill-rule="evenodd" clip-rule="evenodd" d="M29.55 16.233c.988-1.207 2.683-2.133 4.133-2.233.243 1.649-.428 3.264-1.316 4.406-.948 1.226-2.586 2.175-4.17 2.126-.29-1.58.452-3.205 1.353-4.3zm4.466 4.3c1.93 0 3.974 1.044 5.429 2.843-4.768 2.595-3.996 9.352.822 11.162-.663 1.457-.98 2.107-1.835 3.398-1.191 1.8-2.869 4.044-4.952 4.06-.856.01-1.418-.246-2.023-.522-.702-.32-1.463-.666-2.81-.658-1.34.006-2.112.348-2.824.663-.621.275-1.196.529-2.059.52-2.08-.017-3.672-2.042-4.863-3.842-3.33-5.033-3.681-10.941-1.627-14.084 1.462-2.231 3.766-3.536 5.93-3.536 1.154 0 2.084.329 2.97.642.806.285 1.577.558 2.446.558.805 0 1.467-.249 2.189-.52.865-.326 1.818-.684 3.207-.684z"/></symbol><symbol id="icon-conveniences--about-left-arrow"><path d="M740.969 143.369H182.854V44H6.591" stroke="#FCB72B" stroke-width="15" stroke-linejoin="bevel"/><path d="M44.64 82.64L6.212 44.212 44.64 5.787" stroke="#FCB72B" stroke-width="15" stroke-linejoin="bevel"/></symbol><symbol id="icon-facebook"><path d="M22.675 0H1.325C.593 0 0 .593 0 1.325v21.351C0 23.407.593 24 1.325 24H12.82v-9.294H9.692v-3.622h3.128V8.413c0-3.1 1.893-4.788 4.659-4.788 1.325 0 2.463.099 2.795.143v3.24l-1.918.001c-1.504 0-1.795.715-1.795 1.763v2.313h3.587l-.467 3.622h-3.12V24h6.116c.73 0 1.323-.593 1.323-1.325V1.325C24 .593 23.407 0 22.675 0z"/></symbol><symbol id="icon-faqs"><path d="M2 11l8-8 8 8" stroke="#FCB72B" stroke-width="3"/></symbol><symbol id="icon-header-logo"><path fill-rule="evenodd" clip-rule="evenodd" d="M107.097 23.2V28h-8.4c-.907 0-1.647-.293-2.22-.88-.573-.587-.86-1.333-.86-2.24V12.96h-5.88v-4.8h5.88V0h5.04v8.16h7.16v4.8h-7.16V22c0 .8.36 1.2 1.08 1.2h5.36zM9.12 28.56c2.613 0 4.64-.587 6.08-1.76 1.44-1.173 2.16-2.747 2.16-4.72v-.24c0-1.787-.64-3.18-1.92-4.18-1.28-1-2.933-1.607-4.96-1.82-1.76-.187-2.973-.42-3.64-.7-.667-.28-1-.74-1-1.38 0-.453.213-.833.64-1.14.427-.307 1.067-.46 1.92-.46.933 0 1.693.207 2.28.62.587.413 1 .98 1.24 1.7l4.56-1.84a8.832 8.832 0 00-.92-1.74c-.4-.6-.92-1.147-1.56-1.64-.64-.493-1.42-.893-2.34-1.2-.92-.307-2.007-.46-3.26-.46-.96 0-1.893.133-2.8.4a7.473 7.473 0 00-2.4 1.18 6.193 6.193 0 00-1.68 1.9c-.427.747-.64 1.613-.64 2.6v.24c0 1.893.66 3.327 1.98 4.3 1.32.973 3.1 1.553 5.34 1.74.827.08 1.513.187 2.06.32.547.133.98.3 1.3.5.32.2.54.413.66.64.12.227.18.473.18.74 0 .453-.233.873-.7 1.26-.467.387-1.327.58-2.58.58-1.413 0-2.46-.32-3.14-.96-.68-.64-1.127-1.387-1.34-2.24L0 22.32c.133.693.393 1.407.78 2.14.387.733.94 1.4 1.66 2 .72.6 1.627 1.1 2.72 1.5 1.093.4 2.413.6 3.96.6zm22.454 0c2.827 0 5.087-.72 6.78-2.16 1.694-1.44 2.767-3.333 3.22-5.68l-4.96-1.24c-.24 1.307-.766 2.347-1.58 3.12-.813.773-1.993 1.16-3.54 1.16-.72 0-1.4-.113-2.04-.34a4.705 4.705 0 01-1.68-1.02c-.48-.453-.86-1.02-1.14-1.7-.28-.68-.42-1.46-.42-2.34v-.24c0-.88.14-1.673.42-2.38.28-.707.66-1.307 1.14-1.8a5.006 5.006 0 011.68-1.14 5.25 5.25 0 012.04-.4c1.547 0 2.747.427 3.6 1.28a5.184 5.184 0 011.52 3.04l4.96-1.28c-.453-2.347-1.54-4.24-3.26-5.68-1.72-1.44-3.966-2.16-6.74-2.16-1.44 0-2.793.24-4.06.72a9.726 9.726 0 00-3.32 2.08c-.946.907-1.686 2-2.22 3.28-.533 1.28-.8 2.72-.8 4.32v.48c0 1.6.267 3.027.8 4.28.534 1.253 1.267 2.307 2.2 3.16.934.853 2.034 1.507 3.3 1.96 1.267.453 2.634.68 4.1.68zm26.355-.68c-1.24.453-2.54.68-3.9.68-1.36 0-2.66-.227-3.9-.68a9.996 9.996 0 01-3.3-1.98c-.96-.867-1.72-1.933-2.28-3.2-.56-1.267-.84-2.727-.84-4.38v-.48c0-1.627.28-3.073.84-4.34.56-1.267 1.32-2.34 2.28-3.22a9.827 9.827 0 013.3-2c1.24-.453 2.54-.68 3.9-.68 1.36 0 2.66.227 3.9.68a9.827 9.827 0 013.3 2c.96.88 1.72 1.953 2.28 3.22.56 1.267.84 2.713.84 4.34v.48c0 1.653-.28 3.113-.84 4.38-.56 1.267-1.32 2.333-2.28 3.2a9.996 9.996 0 01-3.3 1.98zm-3.9-4.12c-.72 0-1.4-.12-2.04-.36a4.95 4.95 0 01-1.68-1.04 4.911 4.911 0 01-1.14-1.66c-.28-.653-.42-1.393-.42-2.22v-.8c0-.827.14-1.567.42-2.22.28-.653.66-1.207 1.14-1.66a4.95 4.95 0 011.68-1.04c.64-.24 1.32-.36 2.04-.36s1.4.12 2.04.36c.64.24 1.2.587 1.68 1.04.48.453.86 1.007 1.14 1.66.28.653.42 1.393.42 2.22v.8c0 .827-.14 1.567-.42 2.22a4.911 4.911 0 01-1.14 1.66c-.48.453-1.04.8-1.68 1.04-.64.24-1.32.36-2.04.36zm26.594 4.12c-1.24.453-2.54.68-3.9.68-1.36 0-2.66-.227-3.9-.68a9.996 9.996 0 01-3.3-1.98c-.96-.867-1.72-1.933-2.28-3.2-.56-1.267-.84-2.727-.84-4.38v-.48c0-1.627.28-3.073.84-4.34.56-1.267 1.32-2.34 2.28-3.22a9.827 9.827 0 013.3-2c1.24-.453 2.54-.68 3.9-.68 1.36 0 2.66.227 3.9.68a9.827 9.827 0 013.3 2c.96.88 1.72 1.953 2.28 3.22.56 1.267.84 2.713.84 4.34v.48c0 1.653-.28 3.113-.84 4.38-.56 1.267-1.32 2.333-2.28 3.2a9.996 9.996 0 01-3.3 1.98zm-3.9-4.12c-.72 0-1.4-.12-2.04-.36a4.95 4.95 0 01-1.68-1.04 4.911 4.911 0 01-1.14-1.66c-.28-.653-.42-1.393-.42-2.22v-.8c0-.827.14-1.567.42-2.22.28-.653.66-1.207 1.14-1.66a4.95 4.95 0 011.68-1.04c.64-.24 1.32-.36 2.04-.36s1.4.12 2.04.36c.64.24 1.2.587 1.68 1.04.48.453.86 1.007 1.14 1.66.28.653.42 1.393.42 2.22v.8c0 .827-.14 1.567-.42 2.22a4.911 4.911 0 01-1.14 1.66c-.48.453-1.04.8-1.68 1.04-.64.24-1.32.36-2.04.36z"/></symbol><symbol id="icon-instagram"><path fill-rule="evenodd" clip-rule="evenodd" d="M12 0C8.741 0 8.333.014 7.053.072 2.695.272.273 2.69.073 7.052.014 8.333 0 8.741 0 12c0 3.259.014 3.668.072 4.948.2 4.358 2.618 6.78 6.98 6.98C8.333 23.986 8.741 24 12 24c3.259 0 3.668-.014 4.948-.072 4.354-.2 6.782-2.618 6.979-6.98.059-1.28.073-1.689.073-4.948 0-3.259-.014-3.667-.072-4.947-.196-4.354-2.617-6.78-6.979-6.98C15.668.014 15.259 0 12 0zm0 2.163c3.204 0 3.584.012 4.85.07 3.252.148 4.771 1.691 4.919 4.919.058 1.265.069 1.645.069 4.849 0 3.205-.012 3.584-.069 4.849-.149 3.225-1.664 4.771-4.919 4.919-1.266.058-1.644.07-4.85.07-3.204 0-3.584-.012-4.849-.07-3.26-.149-4.771-1.699-4.919-4.92-.058-1.265-.07-1.644-.07-4.849 0-3.204.013-3.583.07-4.849.149-3.227 1.664-4.771 4.919-4.919 1.266-.057 1.645-.069 4.849-.069zM5.838 12a6.162 6.162 0 1112.324 0 6.162 6.162 0 01-12.324 0zM12 16a4 4 0 110-8 4 4 0 010 8zm4.965-10.405a1.44 1.44 0 112.881.001 1.44 1.44 0 01-2.881-.001z"/></symbol><symbol id="icon-play-market"><rect width="182" height="56" rx="4" fill="#E5ECF4"/><g clip-path="url(#clip0)"><path d="M57.2 35.92h6V43h-2.4v-1.56h-.36c-.16.52-.467.96-.92 1.32-.453.347-1.133.52-2.04.52-.64 0-1.24-.12-1.8-.36a4.075 4.075 0 01-1.46-1.06c-.413-.48-.74-1.067-.98-1.76-.24-.707-.36-1.527-.36-2.46v-3.28c0-.907.127-1.707.38-2.4.267-.707.627-1.3 1.08-1.78A4.48 4.48 0 0156 29.1a5.713 5.713 0 012.12-.38c.8 0 1.513.133 2.14.4.627.253 1.16.613 1.6 1.08.44.453.773.993 1 1.62.227.613.34 1.273.34 1.98v.24h-2.64v-.24c0-.84-.22-1.473-.66-1.9-.427-.44-1.033-.66-1.82-.66-.747 0-1.36.253-1.84.76-.48.493-.72 1.347-.72 2.56v2.96c0 2.16.88 3.24 2.64 3.24.787 0 1.38-.207 1.78-.62.413-.427.62-.993.62-1.7H57.2v-2.52zm17.433 2.24c0 .827-.14 1.56-.42 2.2a4.79 4.79 0 01-1.14 1.6 5.065 5.065 0 01-1.66.98 5.55 5.55 0 01-1.94.34c-.68 0-1.333-.113-1.96-.34a5.113 5.113 0 01-1.64-.98 4.79 4.79 0 01-1.14-1.6c-.28-.64-.42-1.373-.42-2.2v-.24c0-.813.14-1.533.42-2.16.28-.64.66-1.18 1.14-1.62a4.937 4.937 0 011.64-1 5.717 5.717 0 011.96-.34c.68 0 1.327.113 1.94.34.627.227 1.18.56 1.66 1 .48.44.86.98 1.14 1.62.28.627.42 1.347.42 2.16v.24zm-5.16 2.72c.36 0 .7-.06 1.02-.18.32-.12.6-.293.84-.52.24-.227.427-.5.56-.82.147-.333.22-.707.22-1.12v-.4c0-.413-.073-.78-.22-1.1a2.324 2.324 0 00-.56-.84 2.47 2.47 0 00-.84-.52 2.88 2.88 0 00-1.02-.18c-.36 0-.7.06-1.02.18-.32.12-.6.293-.84.52-.24.227-.433.507-.58.84-.133.32-.2.687-.2 1.1v.4a3 3 0 00.2 1.12c.147.32.34.593.58.82.24.227.52.4.84.52.32.12.66.18 1.02.18zm16.514-2.72c0 .827-.14 1.56-.42 2.2a4.79 4.79 0 01-1.14 1.6 5.066 5.066 0 01-1.66.98 5.55 5.55 0 01-1.94.34c-.68 0-1.334-.113-1.96-.34a5.112 5.112 0 01-1.64-.98 4.79 4.79 0 01-1.14-1.6c-.28-.64-.42-1.373-.42-2.2v-.24c0-.813.14-1.533.42-2.16.28-.64.66-1.18 1.14-1.62a4.936 4.936 0 011.64-1 5.717 5.717 0 011.96-.34c.68 0 1.326.113 1.94.34.626.227 1.18.56 1.66 1 .48.44.86.98 1.14 1.62.28.627.42 1.347.42 2.16v.24zm-5.16 2.72c.36 0 .7-.06 1.02-.18.32-.12.6-.293.84-.52.24-.227.426-.5.56-.82.146-.333.22-.707.22-1.12v-.4c0-.413-.074-.78-.22-1.1a2.325 2.325 0 00-.56-.84 2.47 2.47 0 00-.84-.52 2.88 2.88 0 00-1.02-.18c-.36 0-.7.06-1.02.18-.32.12-.6.293-.84.52-.24.227-.434.507-.58.84-.134.32-.2.687-.2 1.1v.4c0 .413.066.787.2 1.12.146.32.34.593.58.82.24.227.52.4.84.52.32.12.66.18 1.02.18zm13.873.68h-.36c-.107.227-.24.447-.4.66-.147.2-.347.38-.6.54-.24.16-.534.287-.88.38-.334.093-.74.14-1.22.14a4.589 4.589 0 01-1.72-.32 4.15 4.15 0 01-1.38-.98 4.937 4.937 0 01-.92-1.6c-.214-.627-.32-1.347-.32-2.16v-.36c0-.8.113-1.513.34-2.14.24-.627.56-1.153.96-1.58a4.17 4.17 0 011.42-1 4.446 4.446 0 011.72-.34c.8 0 1.433.153 1.9.46.466.293.833.713 1.1 1.26h.36v-1.44h2.52v12.36c0 .453-.147.827-.44 1.12-.28.293-.647.44-1.1.44H89v-2.4h5.16c.36 0 .54-.2.54-.6v-2.44zm-2.64-.68c.786 0 1.42-.247 1.9-.74.493-.507.74-1.167.74-1.98v-.24c0-.813-.247-1.467-.74-1.96-.48-.507-1.114-.76-1.9-.76-.787 0-1.427.247-1.92.74-.48.48-.72 1.14-.72 1.98v.24c0 .84.24 1.507.72 2 .493.48 1.133.72 1.92.72zm6.853-.28h3.48v-9.2h-3.36V29h5.88v11.6h3.24V43h-9.24v-2.4zm13.633-1.74c.014.293.08.567.2.82.134.24.307.453.52.64.227.173.48.313.76.42.294.093.6.14.92.14.627 0 1.107-.107 1.44-.32.334-.227.574-.493.72-.8l2.16 1.2c-.12.253-.286.52-.5.8a3.536 3.536 0 01-.84.74c-.333.227-.746.413-1.24.56-.48.147-1.046.22-1.7.22a5.56 5.56 0 01-2.04-.36 4.622 4.622 0 01-1.6-1.04 4.895 4.895 0 01-1.04-1.66c-.24-.653-.36-1.393-.36-2.22v-.12c0-.76.127-1.453.38-2.08a4.85 4.85 0 011.08-1.6c.454-.44.98-.78 1.58-1.02a5.087 5.087 0 011.96-.38c.854 0 1.587.153 2.2.46.614.293 1.12.673 1.52 1.14.4.453.694.96.88 1.52.187.547.28 1.08.28 1.6v1.34h-7.28zm2.38-3.78c-.64 0-1.16.167-1.56.5-.4.32-.66.693-.78 1.12h4.68c-.08-.467-.333-.853-.76-1.16-.413-.307-.94-.46-1.58-.46zm9.273 2.64V43h-2.64V29h5.48c.72 0 1.347.12 1.88.36.534.227.974.533 1.32.92.36.373.627.807.8 1.3.187.48.28.973.28 1.48v.48c0 .52-.093 1.033-.28 1.54a3.87 3.87 0 01-2.12 2.28c-.533.24-1.16.36-1.88.36h-2.84zm0-2.52h2.58c.587 0 1.047-.16 1.38-.48.347-.32.52-.733.52-1.24v-.24c0-.507-.173-.92-.52-1.24-.333-.32-.793-.48-1.38-.48h-2.58v3.68zm8.774 5.4h3.48v-9.2h-3.36V29h5.88v11.6h3.24V43h-9.24v-2.4zm17.833.96c-.267.627-.64 1.073-1.12 1.34-.48.253-1.04.38-1.68.38a4.3 4.3 0 01-1.7-.34 4.03 4.03 0 01-1.38-1c-.4-.44-.72-.973-.96-1.6-.227-.627-.34-1.34-.34-2.14v-.32c0-.787.113-1.493.34-2.12.227-.627.533-1.16.92-1.6.387-.44.833-.773 1.34-1 .52-.24 1.073-.36 1.66-.36.707 0 1.273.12 1.7.36.44.24.787.613 1.04 1.12h.36v-1.2h2.52V40c0 .4.18.6.54.6h.38V43h-1.72c-.453 0-.827-.133-1.12-.4-.28-.267-.42-.613-.42-1.04h-.36zm-2.24-.68c.733 0 1.32-.24 1.76-.72.44-.493.66-1.16.66-2v-.24c0-.84-.22-1.5-.66-1.98-.44-.493-1.027-.74-1.76-.74-.733 0-1.32.247-1.76.74-.44.48-.66 1.14-.66 1.98v.24c0 .84.22 1.507.66 2 .44.48 1.027.72 1.76.72zm13.893-7.8h2.52v12.36c0 .453-.147.827-.44 1.12-.28.293-.647.44-1.1.44h-5.9v-2.4h4.38c.36 0 .54-.2.54-.6v-2.44h-.36c-.44 1.147-1.387 1.72-2.84 1.72-.493 0-.953-.08-1.38-.24-.427-.16-.8-.407-1.12-.74a3.612 3.612 0 01-.76-1.24c-.173-.507-.26-1.1-.26-1.78v-6.2h2.52v5.68c0 .707.167 1.26.5 1.66.333.387.833.58 1.5.58.76 0 1.313-.24 1.66-.72.36-.493.54-1.16.54-2v-5.2zM54.6 15.46h3V19h-1.2v-.78h-.18c-.08.26-.233.48-.46.66-.227.173-.567.26-1.02.26-.32 0-.62-.06-.9-.18a2.038 2.038 0 01-.73-.53 2.67 2.67 0 01-.49-.88 3.824 3.824 0 01-.18-1.23v-1.64c0-.453.063-.853.19-1.2.133-.353.313-.65.54-.89.233-.24.51-.42.83-.54.32-.127.673-.19 1.06-.19.4 0 .757.067 1.07.2.313.127.58.307.8.54.22.227.387.497.5.81.113.307.17.637.17.99v.12h-1.32v-.12c0-.42-.11-.737-.33-.95-.213-.22-.517-.33-.91-.33-.373 0-.68.127-.92.38-.24.247-.36.673-.36 1.28v1.48c0 1.08.44 1.62 1.32 1.62.393 0 .69-.103.89-.31.207-.213.31-.497.31-.85H54.6v-1.26zm4.967 1.47c.006.147.04.283.1.41.066.12.153.227.26.32a1.5 1.5 0 00.38.21c.146.047.3.07.46.07.313 0 .553-.053.72-.16a1.02 1.02 0 00.36-.4l1.08.6c-.06.127-.144.26-.25.4a1.772 1.772 0 01-.42.37 2.227 2.227 0 01-.62.28c-.24.073-.524.11-.85.11-.374 0-.714-.06-1.02-.18a2.306 2.306 0 01-.8-.52 2.443 2.443 0 01-.52-.83 3.204 3.204 0 01-.18-1.11v-.06c0-.38.063-.727.19-1.04.133-.313.313-.58.54-.8.226-.22.49-.39.79-.51.306-.127.633-.19.98-.19.426 0 .793.077 1.1.23a2.28 2.28 0 011.2 1.33c.093.273.14.54.14.8v.67h-3.64zm1.19-1.89c-.32 0-.58.083-.78.25-.2.16-.33.347-.39.56h2.34a.883.883 0 00-.38-.58c-.207-.153-.47-.23-.79-.23zm3.236-1h1.47V12h1.26v2.04h1.79v1.2h-1.79v2.26c0 .2.09.3.27.3h1.34V19h-2.1a.759.759 0 01-.56-.22.778.778 0 01-.21-.56v-2.98h-1.47v-1.2zm11.583 3.76h1.68v-2.56h-1.56v-1.2h2.82v3.76h1.44V19h-4.38v-1.2zm3.25-5.23c0 .133-.026.26-.08.38a.913.913 0 01-.2.3 1.11 1.11 0 01-.31.2.936.936 0 01-.36.07.961.961 0 01-.37-.07 1.175 1.175 0 01-.3-.2 1.057 1.057 0 01-.21-.3 1.039 1.039 0 010-.75.897.897 0 01.21-.3.909.909 0 01.3-.2.858.858 0 01.37-.08c.127 0 .247.027.36.08.12.047.224.113.31.2a.78.78 0 01.2.3c.054.113.08.237.08.37zm2.197 1.47h1.47V12h1.26v2.04h1.79v1.2h-1.79v2.26c0 .2.09.3.27.3h1.34V19h-2.1a.758.758 0 01-.56-.22.778.778 0 01-.21-.56v-2.98h-1.47v-1.2zm16.353 2.54c0 .413-.07.78-.21 1.1a2.4 2.4 0 01-.57.8c-.24.213-.516.377-.83.49a2.78 2.78 0 01-.97.17 2.86 2.86 0 01-.98-.17 2.557 2.557 0 01-.82-.49 2.4 2.4 0 01-.57-.8 2.72 2.72 0 01-.21-1.1v-.12c0-.407.07-.767.21-1.08.14-.32.33-.59.57-.81.24-.22.514-.387.82-.5a2.87 2.87 0 011.95 0 2.372 2.372 0 011.4 1.31c.14.313.21.673.21 1.08v.12zm-2.58 1.36c.18 0 .35-.03.51-.09.16-.06.3-.147.42-.26.12-.113.214-.25.28-.41.074-.167.11-.353.11-.56v-.2c0-.207-.036-.39-.11-.55a1.16 1.16 0 00-.28-.42c-.12-.113-.26-.2-.42-.26a1.44 1.44 0 00-.51-.09c-.18 0-.35.03-.51.09-.16.06-.3.147-.42.26-.12.113-.216.253-.29.42-.066.16-.1.343-.1.55v.2c0 .207.034.393.1.56a1.238 1.238 0 00.71.67c.16.06.33.09.51.09zM99.453 19h-1.26v-4.96h1.26v.74h.18c.113-.28.297-.497.55-.65.253-.153.55-.23.89-.23.24 0 .463.04.67.12.213.073.4.19.56.35.16.16.283.363.37.61.093.247.14.54.14.88V19h-1.26v-2.82c0-.353-.087-.63-.26-.83-.167-.207-.41-.31-.73-.31-.373 0-.653.127-.84.38-.18.247-.27.58-.27 1V19z"/></g><path fill-rule="evenodd" clip-rule="evenodd" d="M17.352 14.237a2.348 2.348 0 012.253.108l13.872 8.078-3.973 3.992-12.152-12.178zM16 16.421c0-.371.082-.732.236-1.057L28.385 27.54 16.238 39.744A2.381 2.381 0 0116 38.697V16.421zm13.506 12.24l-12.133 12.19c.322.15.665.215 1.007.215.422 0 .844-.101 1.225-.33l13.875-8.09-3.974-3.984zm9.24-3.17l.014.009a2.36 2.36 0 011.144 2.033 2.36 2.36 0 01-1.144 2.033l-3.863 2.253-4.273-4.281 4.27-4.29 3.852 2.243z"/></symbol><symbol id="icon-to-order-second" viewBox="0 0 43 32">
<path fill-rule="evenodd" clip-rule="evenodd" d="M34.5391 16.4188L32.6121 7.71309C33.1321 7.64268 33.5908 7.37815 33.9134 6.99507C34.2943 7.23312 34.7435 7.37136 35.2248 7.37136H36.8786C37.3353 7.37136 37.7054 7.00121 37.7054 6.54449V3.237C37.7054 2.78028 37.3353 2.41012 36.8786 2.41012H35.2248C34.7293 2.41012 34.2674 2.55676 33.8795 2.80838C33.501 2.38041 32.9483 2.10974 32.3333 2.10974H27.4522C26.5753 2.10974 25.8246 2.6598 25.5258 3.43273H23.5659C22.3805 3.43273 21.416 4.3972 21.416 5.5826C21.416 6.768 22.3805 7.73247 23.5659 7.73247H27.822V9.39882C27.822 9.85554 28.1922 10.2257 28.6489 10.2257C29.1056 10.2257 29.4758 9.85554 29.4758 9.39882V7.73247H30.9228L32.9984 17.1107L29.0701 24.1075C28.6408 24.8691 27.8314 25.3423 26.957 25.3423H17.1505C16.74 21.8995 13.8046 19.2208 10.2532 19.2208C8.68185 19.2208 7.19929 19.7328 5.96576 20.7011L5.96092 20.705C4.49225 21.8601 3.56912 23.5177 3.35401 25.3423H1.65568C1.76357 19.3978 6.63275 14.5955 12.6021 14.5955H18.4677C18.9306 14.5955 19.3075 14.9725 19.3075 15.4356V22.8617C19.3075 23.3184 19.6776 23.6885 20.1344 23.6885H24.5342C26.3291 23.6885 27.9832 22.7124 28.8508 21.1417C29.2523 20.415 29.4651 19.592 29.4658 18.7622L29.47 16.0151C29.4706 15.5584 29.1008 15.1876 28.6441 15.1869H28.6431C28.187 15.1869 27.8169 15.5564 27.8162 16.0125L27.812 18.7603C27.8117 19.3119 27.6702 19.8591 27.4034 20.342C26.8265 21.3859 25.7271 22.0345 24.5342 22.0345H20.9612V15.4353C20.9612 15.0119 20.8547 14.6126 20.6676 14.2628C21.4105 13.8336 21.9118 13.0312 21.9118 12.1136C21.9118 10.7457 20.7988 9.63299 19.4312 9.63299H16.4131C16.1231 9.63299 15.845 9.68338 15.5862 9.77511V2.52188C15.5862 1.15399 14.4732 0.0412598 13.1056 0.0412598H7.77132C3.90439 0.0412598 0.688631 2.88041 0.0975453 6.58325C0.0726744 6.66206 0.0591085 6.74572 0.0591085 6.8326C0.0591085 6.83523 0.0592753 6.83777 0.0594393 6.84027C0.0595982 6.84269 0.0597545 6.84508 0.0597545 6.84746C0.0203489 7.164 0 7.48603 0 7.81258V12.1139C0 13.3559 0.917636 14.3875 2.11047 14.5668L3.94154 16.3978C1.5155 18.6963 0 21.9463 0 25.5442V26.1692C0 26.6259 0.370155 26.996 0.826873 26.996H5.47384C5.46318 27.0493 5.45736 27.1049 5.45736 27.1614C5.45736 28.3614 5.90149 29.4592 6.63275 30.3009H0.826873C0.370155 30.3009 0 30.6714 0 31.1278C0 31.5845 0.370155 31.9547 0.826873 31.9547H10.1576L10.1852 31.9556C10.2079 31.9565 10.2305 31.9573 10.2532 31.9573C12.8976 31.9573 15.0491 29.8058 15.0491 27.1614C15.0491 27.1049 15.0433 27.0493 15.0326 26.996H26.957C28.259 26.996 29.4758 26.372 30.2384 25.3397H31.2855C31.0501 25.9127 30.9251 26.5303 30.9251 27.1614C30.9251 28.3614 31.3692 29.4592 32.1005 30.3009H21.3773C20.9205 30.3009 20.5504 30.6714 20.5504 31.1278C20.5504 31.5845 20.9205 31.9547 21.3773 31.9547H35.6253C35.6573 31.9557 35.689 31.9573 35.7209 31.9573C38.3653 31.9573 40.5168 29.8058 40.5168 27.1614C40.5168 26.5303 40.3918 25.9127 40.1563 25.3397H41.509C41.9658 25.3397 42.3359 24.9696 42.3359 24.5128C42.3359 20.1482 38.8653 16.5787 34.5391 16.4188ZM16.4131 11.2871H19.4312C19.887 11.2871 20.2581 11.6579 20.2581 12.1139C20.2581 12.5697 19.887 12.9408 19.4312 12.9408H16.4131C15.957 12.9408 15.5862 12.5697 15.5862 12.1139C15.5862 11.6579 15.957 11.2871 16.4131 11.2871ZM1.65604 7.71089L1.65604 7.7109C1.65489 7.74478 1.65375 7.7786 1.65375 7.81258V12.1139C1.65375 12.5697 2.02455 12.9408 2.4803 12.9408H2.48094H13.1053C13.5614 12.9408 13.9322 12.5697 13.9322 12.1139V2.5222C13.9322 2.06613 13.5614 1.69533 13.1053 1.69533H7.77132C5.02681 1.69533 2.69897 3.51187 1.92636 6.00605H10.7057C11.1625 6.00605 11.5326 6.37621 11.5326 6.83293C11.5326 7.28964 11.1625 7.6598 10.7057 7.6598H1.65762L1.65604 7.71089ZM4.47707 14.5946H6.36919C5.9719 14.8213 5.5885 15.0697 5.21964 15.3371L4.47707 14.5946ZM10.2852 30.3026C12.0029 30.2854 13.3953 28.8833 13.3953 27.1614C13.3953 27.1049 13.4012 27.0493 13.4118 26.996H7.09464C7.1053 27.0493 7.11111 27.1049 7.11111 27.1614C7.11111 28.862 8.46932 30.2502 10.1579 30.3009H10.2532C10.2593 30.3009 10.2654 30.3014 10.2715 30.3018C10.2761 30.3021 10.2806 30.3024 10.2852 30.3026ZM5.02261 25.3423C5.22739 24.0287 5.91731 22.842 6.98288 22.0051C6.98547 22.0035 6.98773 22.0012 6.99031 21.9996C7.92894 21.2638 9.05717 20.8746 10.2532 20.8746C12.8915 20.8746 15.0849 22.8142 15.4832 25.3423H5.02261ZM36.0517 4.06387H35.2248C34.7687 4.06387 34.3979 4.43499 34.3979 4.89074C34.3979 5.34682 34.7687 5.71762 35.2248 5.71762H36.0517V4.06387ZM23.0698 5.5826C23.0698 5.30902 23.2923 5.08648 23.5659 5.08648H25.3876V5.66787C25.3876 5.8087 25.4018 5.94598 25.4286 6.07873H23.5659C23.2923 6.07873 23.0698 5.85618 23.0698 5.5826ZM27.4522 6.07873H28.6489H32.3333C32.5598 6.07873 32.7442 5.89462 32.7442 5.66787V4.17434C32.7442 3.94791 32.5598 3.76348 32.3333 3.76348H27.4522C27.2258 3.76348 27.0413 3.94791 27.0413 4.17434V5.66787C27.0413 5.89462 27.2258 6.07873 27.4522 6.07873ZM38.863 27.1614C38.863 28.8833 37.4706 30.2854 35.7529 30.3026C35.7507 30.3025 35.7484 30.3024 35.7462 30.3023C35.7438 30.3021 35.7415 30.302 35.7392 30.3018C35.7331 30.3014 35.727 30.301 35.7209 30.301H35.6256C33.937 30.2502 32.5788 28.862 32.5788 27.1614C32.5788 26.5044 32.7836 25.8694 33.1609 25.3397H38.281C38.6583 25.8694 38.863 26.5044 38.863 27.1614ZM34.3563 18.07L31.2032 23.686H40.6292C40.2274 20.5597 37.5762 18.1291 34.3563 18.07Z" fill="#495567"/>
</symbol><symbol id="icon-to-order-third" viewBox="0 0 40 40">
<path fill-rule="evenodd" clip-rule="evenodd" d="M36.1713 18H38C38.3682 18 38.6667 17.7015 38.6667 17.3333V12C38.6667 11.6318 38.3682 11.3333 38 11.3333H31.7453L30.6667 9.176V6.66667C30.6667 6.29848 30.3682 6 30 6H26C25.6318 6 25.3333 6.29848 25.3333 6.66667V9.33333C25.3333 9.70152 25.6318 10 26 10H29.588L30.6667 12.1573V16C30.6667 14.8954 29.7712 14 28.6667 14C27.5621 14 26.6667 14.8954 26.6667 16V14.6667C26.6667 14.2985 26.3682 14 26 14H20.7487L18.6667 13.4793V2.66667C18.6667 1.19391 17.4728 0 16 0H13.3333C11.8606 0 10.6667 1.19391 10.6667 2.66667V10H7.33333C6.22876 10 5.33333 10.8954 5.33333 12V14H0.666667C0.397069 14.0001 0.154044 14.1625 0.0508813 14.4116C-0.0522813 14.6606 0.00472805 14.9473 0.195333 15.138L1.724 16.6667L0.195333 18.1953C0.00472805 18.386 -0.0522813 18.6727 0.0508813 18.9218C0.154044 19.1708 0.397069 19.3333 0.666667 19.3333H7.33333C8.4379 19.3333 9.33333 18.4379 9.33333 17.3333V15.3333H10.6667V22H8.66667C6.34895 22.0027 4.38444 23.706 4.05333 26H2C1.63181 26 1.33333 26.2985 1.33333 26.6667V29.3333C1.33333 29.7015 1.63181 30 2 30H4V31.3333H0.666667C0.298477 31.3333 0 31.6318 0 32V34.6667C0 35.0349 0.298477 35.3333 0.666667 35.3333H8C8 37.9107 10.0893 40 12.6667 40C15.244 40 17.3333 37.9107 17.3333 35.3333H29.3333C29.3333 37.9107 31.4227 40 34 40C36.5773 40 38.6667 37.9107 38.6667 35.3333H39.3333C39.5366 35.3335 39.7288 35.2409 39.8554 35.0818C39.982 34.9228 40.0291 34.7147 39.9833 34.5167L36.1713 18ZM26.6667 16C26.6667 17.1046 27.5621 18 28.6667 18C29.7712 18 30.6667 17.1046 30.6667 16V30H28.6667V29.3333C28.6667 28.2288 27.7712 27.3333 26.6667 27.3333V20C26.6667 19.6318 26.3682 19.3333 26 19.3333H18.6667V17.5207L20.5047 17.98C20.5576 17.9933 20.6121 18 20.6667 18H26C26.3682 18 26.6667 17.7015 26.6667 17.3333V16ZM29.3333 8.66667H26.6667V7.33333H29.3333V8.66667ZM4 34V32.6667H1.33333V34H4ZM4 28.6667H2.66667V27.3333H4V28.6667ZM37.3333 12.6667H36V16.6667H37.3333V12.6667ZM32 12.6667H34.6667V16.6667H32V12.6667ZM27.3333 29.3333C27.3333 28.9651 27.0349 28.6667 26.6667 28.6667H24V30H27.3333V29.3333ZM20.5047 15.3133C20.5576 15.3266 20.6121 15.3333 20.6667 15.3333H25.3333V16.6667H20.7487L16 15.4793V14.1873L20.5047 15.3133ZM13.3333 1.33333C12.597 1.33333 12 1.93029 12 2.66667V5.33333H14V4C14 3.63181 14.2985 3.33333 14.6667 3.33333H17.3333V2.66667C17.3333 1.93029 16.7364 1.33333 16 1.33333H13.3333ZM12 6.66667H14.6667C15.0349 6.66667 15.3333 6.36819 15.3333 6V4.66667H17.3333V6.17067L12 7.77067V6.66667ZM17.3333 10.6667V7.56267L12 9.16267V10.6667H17.3333ZM17.3333 12V13.146L15.4953 12.6867C15.2961 12.6368 15.0851 12.6814 14.9232 12.8078C14.7613 12.9341 14.6667 13.128 14.6667 13.3333V16C14.6667 16.3058 14.8747 16.5724 15.1713 16.6467L17.3333 17.1873V19.3333H12V12H17.3333ZM25.3333 27.3333V20.6667H12V22H23.3333C23.7015 22 24 22.2985 24 22.6667V27.3333H25.3333ZM8 17.3333C8 17.7015 7.70152 18 7.33333 18H2.276L3.138 17.138C3.39825 16.8777 3.39825 16.4557 3.138 16.1953L2.276 15.3333H8V17.3333ZM6.66667 12V14H10.6667V11.3333H7.33333C6.96514 11.3333 6.66667 11.6318 6.66667 12ZM12.6667 38.6667C10.8266 38.6645 9.33554 37.1734 9.33333 35.3333H10.6667C10.6667 36.4379 11.5621 37.3333 12.6667 37.3333C13.7712 37.3333 14.6667 36.4379 14.6667 35.3333H16C15.9978 37.1734 14.5067 38.6645 12.6667 38.6667ZM12.6667 36C13.0349 36 13.3333 35.7015 13.3333 35.3333H12C12 35.7015 12.2985 36 12.6667 36ZM17.3333 34H8V27.3333C8 26.9651 8.29848 26.6667 8.66667 26.6667H16.6667C17.0349 26.6667 17.3333 26.9651 17.3333 27.3333V34ZM18.6667 34H20V26.6667C19.9978 24.8266 18.5067 23.3355 16.6667 23.3333H8.66667C6.82663 23.3355 5.33554 24.8266 5.33333 26.6667V34H6.66667V27.3333C6.66667 26.2288 7.5621 25.3333 8.66667 25.3333H16.6667C17.7712 25.3333 18.6667 26.2288 18.6667 27.3333V34ZM19.9267 23.3333H22.6667V30H21.3333V26.6667C21.3335 25.4113 20.8262 24.2091 19.9267 23.3333ZM34 38.6667C32.16 38.6645 30.6689 37.1734 30.6667 35.3333H32C32 36.4379 32.8954 37.3333 34 37.3333C35.1046 37.3333 36 36.4379 36 35.3333H37.3333C37.3311 37.1734 35.84 38.6645 34 38.6667ZM34 36C34.3682 36 34.6667 35.7015 34.6667 35.3333H33.3333C33.3333 35.7015 33.6318 36 34 36ZM32 34V29.3333H33.3333V28H32V18H34.8L38.492 34H32ZM21.3333 34H30.6667V31.3333H21.3333V34ZM36 28H34.6667V29.3333H36V28ZM9.33333 28H10.6667V29.3333H9.33333V28ZM13.3333 28H12V29.3333H13.3333V28ZM14.6667 28H16V29.3333H14.6667V28ZM28.6667 15.3333C29.0349 15.3333 29.3333 15.6318 29.3333 16C29.3333 16.3682 29.0349 16.6667 28.6667 16.6667C28.2985 16.6667 28 16.3682 28 16C28 15.6318 28.2985 15.3333 28.6667 15.3333ZM0 4.66667H8.66667V6H0V4.66667ZM9.33333 7.33333H1.33333V8.66667H9.33333V7.33333Z" fill="#495567"/>
</symbol><symbol id="icon-to-order"><path fill-rule="evenodd" clip-rule="evenodd" d="M24.8 0H4.01A4.003 4.003 0 00.014 3.998v39.979a4.003 4.003 0 003.998 3.997H24v-1.43a18.178 18.178 0 013.064-10.12.8.8 0 00-.1-1.008l-5.597-5.597a2.594 2.594 0 01.19-3.838 2.693 2.693 0 013.58.275l7.893 7.893 1.13-1.13-5.362-5.365V3.998A4.003 4.003 0 0024.8 0zm2.398 26.055l-.93-.93a4.303 4.303 0 00-5.729-.38 4.194 4.194 0 00-.303 6.204l5.142 5.142a19.77 19.77 0 00-2.971 10.284H4.01a2.4 2.4 0 01-2.399-2.398v-2.4h19.99V39.98H1.611V6.397h25.586v19.658zM1.612 4.797h25.586v-.8A2.4 2.4 0 0024.8 1.6H4.01a2.4 2.4 0 00-2.398 2.399v.8zM31.155 18.6l-1.078 1.18 4.903 4.494a5.61 5.61 0 011.813 4.127v19.573h1.6V28.401a7.214 7.214 0 00-2.334-5.305L31.155 18.6zM4.81 14.393h3.2c.883 0 1.599-.715 1.599-1.599V9.595a1.6 1.6 0 00-1.6-1.6H4.81a1.6 1.6 0 00-1.599 1.6v3.198a1.6 1.6 0 001.6 1.6zm0-4.797h3.2v3.198h-3.2V9.595zm11.194 4.797h-3.198a1.6 1.6 0 01-1.6-1.599V9.595a1.6 1.6 0 011.6-1.6h3.198a1.6 1.6 0 011.6 1.6v3.198a1.6 1.6 0 01-1.6 1.6zm0-4.797h-3.198v3.198h3.198V9.595zm4.798 4.797H24a1.6 1.6 0 001.6-1.599V9.595a1.6 1.6 0 00-1.6-1.6h-3.198a1.6 1.6 0 00-1.6 1.6v3.198a1.6 1.6 0 001.6 1.6zm0-4.797H24v3.198h-3.198V9.595zM8.009 22.388H4.81a1.6 1.6 0 01-1.599-1.6v-3.197a1.6 1.6 0 011.6-1.6h3.198a1.6 1.6 0 011.599 1.6v3.198a1.6 1.6 0 01-1.6 1.6zm0-4.797H4.81v3.198h3.2V17.59zM4.81 30.384h3.2a1.6 1.6 0 001.599-1.6v-3.198a1.6 1.6 0 00-1.6-1.599H4.81a1.6 1.6 0 00-1.599 1.6v3.198a1.6 1.6 0 001.6 1.599zm0-4.798h3.2v3.199h-3.2v-3.199zm11.194-3.198h-3.198a1.6 1.6 0 01-1.6-1.6v-3.197a1.6 1.6 0 011.6-1.6h3.198a1.6 1.6 0 011.6 1.6v3.198a1.6 1.6 0 01-1.6 1.6zm0-4.797h-3.198v3.198h3.198V17.59zm4.798 4.797H24a1.6 1.6 0 001.6-1.6v-3.197a1.6 1.6 0 00-1.6-1.6h-3.198a1.6 1.6 0 00-1.6 1.6v3.198a1.6 1.6 0 001.6 1.6zm0-4.797H24v3.198h-3.198V17.59zm-4.798 12.793h-3.198a1.6 1.6 0 01-1.6-1.6v-3.198a1.6 1.6 0 011.6-1.599h3.198a1.6 1.6 0 011.6 1.6v3.198a1.6 1.6 0 01-1.6 1.599zm0-4.798h-3.198v3.199h3.198v-3.199zM4.81 38.38h3.2a1.6 1.6 0 001.599-1.6v-3.198a1.6 1.6 0 00-1.6-1.6H4.81a1.6 1.6 0 00-1.599 1.6v3.198a1.6 1.6 0 001.6 1.6zm0-4.798h3.2v3.198h-3.2v-3.198zm11.194 4.797h-3.198a1.6 1.6 0 01-1.6-1.599v-3.198a1.6 1.6 0 011.6-1.6h3.198a1.6 1.6 0 011.6 1.6v3.198a1.6 1.6 0 01-1.6 1.6zm0-4.797h-3.198v3.198h3.198v-3.198zm-.8 9.595h-1.598v1.6h1.599v-1.6z" fill="#495567"/></symbol><symbol id="icon-twitter"><path d="M24 2.557a9.83 9.83 0 01-2.828.775A4.932 4.932 0 0023.337.608a9.864 9.864 0 01-3.127 1.195A4.916 4.916 0 0016.616.248c-3.179 0-5.515 2.966-4.797 6.045A13.978 13.978 0 011.671 1.149a4.93 4.93 0 001.523 6.574 4.903 4.903 0 01-2.229-.616c-.054 2.281 1.581 4.415 3.949 4.89a4.935 4.935 0 01-2.224.084 4.928 4.928 0 004.6 3.419A9.9 9.9 0 010 17.54a13.94 13.94 0 007.548 2.212c9.142 0 14.307-7.721 13.995-14.646A10.025 10.025 0 0024 2.557z"/></symbol></svg>